<svg 
 xmlns="http://www.w3.org/2000/svg"
 xmlns:xlink="http://www.w3.org/1999/xlink"
 width="14.5px" height="15.5px">
<path fill-rule="evenodd"  stroke="rgb(54, 67, 77)" stroke-width="1px" stroke-linecap="butt" stroke-linejoin="miter" fill="rgb(34, 34, 34)"
 d="M9.299,9.459 C10.078,8.571 10.564,7.381 10.564,6.072 C10.564,3.324 8.442,1.082 5.827,1.082 C3.212,1.082 1.091,3.324 1.091,6.072 C1.091,8.819 3.212,11.063 5.827,11.063 C6.892,11.063 7.870,10.693 8.663,10.068 L12.185,13.779 C12.271,13.870 12.378,13.915 12.486,13.915 C12.593,13.915 12.707,13.870 12.786,13.779 C12.950,13.606 12.950,13.320 12.786,13.139 L9.299,9.459 ZM1.948,6.072 C1.948,3.821 3.684,1.985 5.827,1.985 C7.963,1.985 9.707,3.814 9.707,6.072 C9.707,8.330 7.970,10.158 5.827,10.158 C3.684,10.158 1.948,8.323 1.948,6.072 Z"/>
</svg>